<svg fill="none" height="66" viewBox="0 0 66 66" width="66" xmlns="http://www.w3.org/2000/svg"><g fill="#3eb466"><path d="m39.4164 64.5573c.8448.8666 2.2324.8842 3.099.0392l3.3303-3.247c.7531-.7343.8782-1.9006.2981-2.7779l-4.6122-6.9743 6.9024 4.7594c.862.5943 2.0243.4959 2.7739-.2352l7.224-7.0434c.6669-.6502.8501-1.6508.4564-2.4948l-.5782-1.241 1.303.6073c.8257.3849 1.8033.2187 2.4557-.4172l2.2674-2.211c.8664-.8448.884-2.2324.0392-3.099l-17.1733-17.6138-24.959 24.3351z"/><path d="m44.0037 19.3291-4.9715-5.0989c-.4057-.4162-.9601-.6542-1.5413-.6616-.5811-.0073-1.1415.2164-1.5576.6223l-4.8367 4.7159c-.9319.9086-2.2075 1.3388-3.4996 1.1804-1.2913-.1582-2.4256-.8844-3.1123-1.9924-8.7687-14.14789-10.0605-15.4727-10.4851-15.90794-3.046-3.124356-8.06604-3.1879-11.19054-.14166-3.127459 3.04928-3.18487 8.0696-.14165 11.1906.4245.4355 1.71677 1.7608 15.63749 10.8842 1.0876.7128 1.7832 1.8646 1.909 3.16.1251 1.2996-.335 2.5638-1.2646 3.4702l-4.8367 4.7158c-.8665.8449-.8841 2.2326-.0392 3.0991l4.9715 5.099zm-37.75539-9.3193c-1.19432-1.22499-1.1695-3.18612.05545-4.3803 1.22495-1.19432 3.18607-1.16949 4.38024.05545 1.1943 1.22495 1.1695 3.18608-.0554 4.38025-1.22484 1.1943-3.18597 1.1695-4.38029-.0554z"/></g></svg>