<svg fill="none" height="51" viewBox="0 0 51 51" width="51" xmlns="http://www.w3.org/2000/svg" xmlns:xlink="http://www.w3.org/1999/xlink"><clipPath id="a"><path d="m0 0h20.8333v20.8333h-20.8333z" transform="matrix(.9999952 .00309914 -.00309914 .9999952 12.6097 14.6222)"/></clipPath><circle cx="25.0774" cy="25.0776" fill="#3eb466" r="25" transform="matrix(.0030997 -.9999952 .9999952 .0030997 -.077812 50.077146)"/><g clip-path="url(#a)"><path d="m17.1682 26.0844 8.9302 8.9854c.568.5719 1.4919.5748 2.0633.0064.5713-.5678.5742-1.4917.0063-2.063l-7.9018-7.9507 7.9507-7.9014c.5714-.5681.5743-1.4918.0064-2.0632-.5678-.5716-1.4916-.5744-2.0632-.0064l-8.9858 8.9301c-.2856.284-.429.6567-.4302 1.0299-.0012.3734.1402.7472.4241 1.0329z" fill="#fff"/></g></svg>