<svg fill="none" height="51" viewBox="0 0 51 51" width="51" xmlns="http://www.w3.org/2000/svg" xmlns:xlink="http://www.w3.org/1999/xlink"><clipPath id="a"><path d="m0 0h20.8333v20.8333h-20.8333z" transform="matrix(-.999995 .00309915 .00309915 .999995 37.545 14.6222)"/></clipPath><circle fill="#3eb466" r="25" transform="matrix(-.0030991 -.999995 -.999995 .0030991 25.0773 25.0776)"/><g clip-path="url(#a)"><path d="m32.9865 26.0844-8.9302 8.9854c-.5681.5719-1.492.5748-2.0633.0064-.5714-.5678-.5742-1.4917-.0064-2.063l7.9019-7.9507-7.9508-7.9014c-.5714-.5681-.5742-1.4918-.0064-2.0632.5679-.5716 1.4917-.5744 2.0633-.0064l8.9857 8.9301c.2857.284.4291.6567.4303 1.0299.0011.3734-.1402.7472-.4241 1.0329z" fill="#fff"/></g></svg>