<svg fill="none" height="117" viewBox="0 0 112 117" width="112" xmlns="http://www.w3.org/2000/svg" xmlns:xlink="http://www.w3.org/1999/xlink"><clipPath id="a"><path d="m47 44.5381h25v25.8941h-25z"/></clipPath><ellipse cx="56" cy="57.9956" fill="#3eb466" rx="36" ry="37.2876"/><ellipse cx="56" cy="58.0029" fill="#3eb466" fill-opacity=".25" rx="56" ry="58.0029"/><g clip-path="url(#a)"><path d="m68.4696 56.9774-17.2624-12.3308c-.1827-.1301-.4196-.1437-.6149-.0382-.1958.1066-.3184.3162-.3184.5456v24.6616c0 .2294.1226.4396.3184.5463.087.0469.1822.0703.2768.0703.1185 0 .2364-.037.3381-.1091l17.2624-12.3309c.1613-.1153.2571-.3045.2571-.5074 0-.2028-.0964-.3921-.2571-.5074z" fill="#fff"/></g></svg>